<?xml version="1.0" encoding="UTF-8" standalone="no" ?>
<!DOCTYPE svg PUBLIC "-//W3C//DTD SVG 1.1//EN" "http://www.w3.org/Graphics/SVG/1.1/DTD/svg11.dtd">
<svg xmlns="http://www.w3.org/2000/svg" xmlns:xlink="http://www.w3.org/1999/xlink" version="1.1" width="1200" height="628" viewBox="0 0 1200 628" xml:space="preserve">
<desc>Created with Fabric.js 5.2.4</desc>
<defs>
</defs>
<g transform="matrix(1 0 0 1 600 314)" id="13ca17a3-0935-4267-80b2-97c1a2031389"  >
<rect style="stroke: none; stroke-width: 1; stroke-dasharray: none; stroke-linecap: butt; stroke-dashoffset: 0; stroke-linejoin: miter; stroke-miterlimit: 4; fill: rgb(255,255,255); fill-rule: nonzero; opacity: 1; visibility: hidden;" vector-effect="non-scaling-stroke"  x="-600" y="-314" rx="0" ry="0" width="1200" height="628" />
</g>
<g transform="matrix(Infinity NaN NaN Infinity 0 0)" id="407277f1-1a62-46a9-a261-de9507e9dbef"  >
</g>
<g transform="matrix(1.02 0 0 1.02 850.55 370.98)"  >
<g style="" vector-effect="non-scaling-stroke"   >
		<g transform="matrix(1 0 0 1 0 20.82)" id="color_x5F_7"  >
<path style="stroke: none; stroke-width: 1; stroke-dasharray: none; stroke-linecap: butt; stroke-dashoffset: 0; stroke-linejoin: miter; stroke-miterlimit: 4; fill: rgb(38,50,56); fill-rule: nonzero; opacity: 1;" vector-effect="non-scaling-stroke"  transform=" translate(-317.57, -320.86)" d="M 157.504 331.642 L 157.224 331.642 L 151.357 331.642 C 147.132 331.642 143.708 335.067 143.708 339.291 L 143.708 340.93 C 143.708 345.15500000000003 147.133 348.579 151.357 348.579 L 166.691 348.579 C 163.088 343.132 159.908 337.508 157.504 331.642 z M 215.907 481.894 L 213.70600000000002 475.617 L 212.733 476.014 L 209.094 477.5 C 207.841 478.012 206.459 478.122 205.141 477.814 L 199.53099999999998 476.504 L 198.26399999999998 476.208 C 198.26399999999998 476.208 193.00099999999998 482.271 190.82 487.60200000000003 C 190.49099999999999 488.406 190.915 489.31800000000004 191.748 489.562 L 219.742 497.767 L 220.851 487.314 C 218.692 485.916 216.728 484.178 215.907 481.894 z M 274.801 497.398 L 273.904 495.54200000000003 C 272.635 492.918 270.226 491.02700000000004 267.376 490.41700000000003 L 260.779 489.00600000000003 C 257.359 488.27500000000003 253.358 487.132 251.335 484.27900000000005 L 247.53 478.82400000000007 L 245.401 480.4750000000001 L 243.59300000000002 481.87700000000007 C 242.52300000000002 482.70700000000005 241.222 483.18300000000005 239.86900000000003 483.24100000000004 L 233.58600000000004 483.50800000000004 L 232.81300000000005 483.54100000000005 C 232.81300000000005 483.54100000000005 230.87800000000004 487.61800000000005 229.62800000000004 492.07000000000005 L 224.02600000000004 489.13500000000005 L 223.04800000000003 498.35300000000007 L 234.51600000000002 498.35300000000007 C 234.50500000000002 498.30600000000004 234.49400000000003 498.25900000000007 234.48200000000003 498.21200000000005 L 245.14400000000003 498.35300000000007 L 274.70900000000006 498.35300000000007 C 274.902 498.09 274.962 497.731 274.801 497.398 z M 551.699 498.353 L 491.23099999999994 498.353 L 485.69499999999994 498.353 L 483.50499999999994 498.353 L 479.9219999999999 498.353 L 477.7019999999999 498.353 L 474.8959999999999 498.353 L 472.7909999999999 498.353 L 469.2009999999999 498.353 L 467.1609999999999 498.353 L 462.6439999999999 498.353 L 460.53699999999986 498.353 L 459.90299999999985 498.353 L 457.7649999999999 498.353 L 456.3729999999999 498.353 L 454.0359999999999 498.353 L 450.06799999999987 498.353 L 404.9229999999999 498.353 L 396.6749999999999 498.353 L 393.3819999999999 498.353 L 387.9799999999999 498.353 L 384.6439999999999 498.353 L 380.4649999999999 498.353 L 377.30099999999993 498.353 L 371.94699999999995 498.353 L 368.87999999999994 498.353 L 362.12299999999993 498.353 L 359.61499999999995 498.353 L 356.65199999999993 470.415 L 352.8999999999999 435.03900000000004 L 348.7339999999999 395.76300000000003 L 348.6549999999999 395.01800000000003 L 338.1499999999999 295.97400000000005 L 346.2459999999999 295.97400000000005 L 346.2459999999999 291.189 L 320.5689999999999 291.189 L 330.5089999999999 248.341 L 328.6129999999999 248.341 L 315.0479999999999 248.341 L 303.3289999999999 248.341 L 264.8009999999999 248.341 L 260.60499999999985 266.43 L 258.00099999999986 277.65500000000003 L 254.86099999999988 291.189 L 238.4469999999999 291.189 L 238.4469999999999 295.97400000000005 L 241.1439999999999 295.97400000000005 L 234.29599999999988 360.54300000000006 L 234.27799999999988 360.71400000000006 L 232.78999999999988 374.74100000000004 L 228.98699999999988 410.6 L 222.8649999999999 468.32300000000004 L 220.85099999999989 487.31500000000005 L 219.74199999999988 497.76800000000003 L 219.67999999999986 498.35400000000004 L 189.77899999999985 498.35400000000004 C 189.77899999999985 495.47700000000003 187.55999999999986 493.122 184.74099999999984 492.89700000000005 L 194.95799999999986 396.56300000000005 L 195.04299999999986 395.76500000000004 L 195.94999999999987 387.21700000000004 L 203.36599999999987 317.297 L 203.93799999999987 311.90500000000003 L 205.60899999999987 296.15200000000004 C 205.61499999999987 296.09200000000004 205.60999999999987 296.03400000000005 205.60999999999987 295.975 L 202.25999999999988 295.975 L 201.72799999999987 300.99100000000004 L 200.84999999999988 309.26900000000006 L 200.78299999999987 309.8960000000001 L 193.01699999999988 383.1190000000001 L 192.03299999999987 392.3950000000001 L 191.94599999999988 393.2200000000001 L 181.3759999999999 492.8760000000001 L 174.66599999999988 492.8760000000001 L 174.66599999999988 369.8460000000001 L 174.66599999999988 368.6660000000001 L 174.66599999999988 359.6850000000001 C 172.7149999999999 357.1370000000001 170.80599999999987 354.5580000000001 168.9769999999999 351.9420000000001 L 168.9769999999999 358.5340000000001 L 168.9769999999999 359.8750000000001 L 168.9769999999999 492.8760000000001 L 159.3429999999999 492.8760000000001 C 156.3169999999999 492.8760000000001 153.8639999999999 495.32900000000006 153.8639999999999 498.3550000000001 L 83.442 498.3550000000001 C 81.467 498.3550000000001 79.865 499.9560000000001 79.865 501.9320000000001 C 79.865 503.9070000000001 81.466 505.50900000000007 83.442 505.50900000000007 L 551.699 505.50900000000007 C 553.674 505.50900000000007 555.276 503.9080000000001 555.276 501.9320000000001 C 555.276 499.954 553.674 498.353 551.699 498.353 z M 334.801 295.973 C 334.801 296.03200000000004 334.796 296.09000000000003 334.80199999999996 296.15000000000003 L 350.97499999999997 448.639 L 351.03099999999995 449.166 L 352.81699999999995 466.002 L 355.30899999999997 489.497 L 356.248 498.353 L 354.80199999999996 498.353 L 352.751 498.353 L 349.236 498.353 L 343.25399999999996 498.353 L 320.73 498.353 L 315.77700000000004 451.65500000000003 L 315.725 451.161 L 299.26500000000004 295.974 L 334.80100000000004 295.974 L 334.801 295.973 L 334.801 295.973 z M 231.112 422.317 L 235.52599999999998 380.699 L 244.493 296.151 C 244.499 296.091 244.494 296.033 244.494 295.974 L 295.915 295.974 C 295.915 296.033 295.91 296.091 295.916 296.151 L 306.655 397.398 L 306.73499999999996 398.15500000000003 L 317.36199999999997 498.35200000000003 L 274.70799999999997 498.35200000000003 L 245.14299999999997 498.35200000000003 L 234.515 498.35200000000003 L 223.047 498.35200000000003 L 224.025 489.134 L 225.738 472.983 L 231.112 422.317 z M 166.248 176.177 C 165.054 175.557 164.232 174.31099999999998 164.232 172.879 L 164.232 170.28699999999998 C 164.232 168.24399999999997 165.904 166.57199999999997 167.947 166.57199999999997 C 169.99 166.57199999999997 171.662 168.24399999999997 171.662 170.28699999999998 L 171.662 171.75599999999997 L 173.731 171.75599999999997 L 176.141 159.55299999999997 L 179.18099999999998 157.98899999999998 L 180.206 152.14299999999997 L 196.56599999999997 152.14299999999997 L 196.56599999999997 160.77799999999996 C 200.15499999999997 158.53399999999996 202.85199999999998 154.82999999999996 203.68499999999997 150.66799999999995 C 204.38699999999997 147.16299999999995 203.60899999999998 143.53199999999995 201.81999999999996 140.44799999999995 C 200.36399999999998 137.93699999999995 197.38499999999996 136.90799999999996 194.54399999999995 137.50099999999995 C 194.37199999999996 137.53699999999995 194.19899999999996 137.56499999999994 194.02599999999995 137.58399999999995 C 192.64399999999995 137.73999999999995 191.25499999999997 137.45599999999996 189.88899999999995 137.19999999999996 C 184.28799999999995 136.14799999999997 178.36699999999996 135.55099999999996 172.99799999999996 137.46299999999997 C 167.62899999999996 139.37399999999997 165.21899999999997 142.16399999999996 165.48799999999997 147.85699999999997 C 163.33799999999997 148.71399999999997 160.78999999999996 151.74899999999997 160.25199999999998 153.99999999999997 C 159.714 156.25099999999998 160.265 159.78399999999996 160.62099999999998 162.07099999999997 C 161.641 168.62399999999997 163.665 175.01499999999996 166.57799999999997 180.97199999999998 L 166.68099999999998 179.748 C 166.409 178.601 166.248 177.409 166.248 176.177 z" stroke-linecap="round" />
</g>
		<g transform="matrix(1 0 0 1 -87.93 -27.89)" id="color_x5F_6_1_"  >
<path style="stroke: none; stroke-width: 1; stroke-dasharray: none; stroke-linecap: butt; stroke-dashoffset: 0; stroke-linejoin: miter; stroke-miterlimit: 4; fill: rgb(69,90,100); fill-rule: nonzero; opacity: 1;" vector-effect="non-scaling-stroke"  transform=" translate(-229.64, -272.16)" d="M 258.765 266.19 L 256.142 277.496 L 253.665 288.176 L 242.49599999999998 288.176 L 241.003 288.176 L 240.035 288.176 L 238.084 288.176 L 236.987 288.176 L 234.631 288.176 L 223.475 288.176 L 222.777 291.188 L 200.077 291.188 L 194.48 291.188 L 194.48 295.973 L 200.855 295.973 L 202.259 295.973 L 205.60899999999998 295.973 L 238.44699999999997 295.973 L 238.44699999999997 291.188 L 254.86199999999997 291.188 L 255.55999999999997 288.176 L 258.001 277.654 L 260.60499999999996 266.429 L 264.80199999999996 248.33999999999997 L 262.90599999999995 248.33999999999997 L 258.765 266.19 z" stroke-linecap="round" />
</g>
		<g transform="matrix(1 0 0 1 -105.15 17.78)" id="color_x5F_5_1_"  >
<path style="stroke: none; stroke-width: 1; stroke-dasharray: none; stroke-linecap: butt; stroke-dashoffset: 0; stroke-linejoin: miter; stroke-miterlimit: 4; fill: rgb(255,204,188); fill-rule: nonzero; opacity: 1;" vector-effect="non-scaling-stroke"  transform=" translate(-212.42, -317.83)" d="M 251.491 275.116 L 251.49200000000002 275.14 C 252.93500000000003 276.507 254.49400000000003 277.211 256.142 277.495 L 258.765 266.189 C 256.47499999999997 265.97900000000004 254.15699999999998 266.065 251.867 266.445 C 241.12 259.423 232.144 252.155 220.464 243.351 C 220.243 243.185 220.03 243.022 219.807 242.855 C 216.47899999999998 240.351 211.56699999999998 242.03699999999998 209.397 245.59199999999998 C 206.881 249.714 206.191 255.24399999999997 209.57899999999998 261.202 C 209.60999999999999 261.257 209.635 261.31 209.66699999999997 261.365 C 223.17 266.264 239.414 271.347 251.491 275.116 z M 258.001 277.654 L 258.001 277.654 L 260.60499999999996 266.429 L 260.60499999999996 266.429 L 258.001 277.654 z M 179.65 204.815 L 181.808 204.99699999999999 L 182.541 196.295 L 182.94299999999998 191.527 L 185.50199999999998 191.527 C 191.61299999999997 191.527 196.56799999999998 186.57299999999998 196.56799999999998 180.46099999999998 L 196.56799999999998 162.611 L 196.56799999999998 161.76899999999998 L 196.56799999999998 160.77899999999997 L 196.56799999999998 152.14399999999998 L 180.20799999999997 152.14399999999998 L 179.18299999999996 157.98999999999998 L 176.14299999999997 159.55399999999997 L 173.73299999999998 171.75699999999998 L 171.664 171.75699999999998 L 171.664 170.28799999999998 C 171.664 168.24499999999998 169.992 166.57299999999998 167.94899999999998 166.57299999999998 C 165.90599999999998 166.57299999999998 164.23399999999998 168.24499999999998 164.23399999999998 170.28799999999998 L 164.23399999999998 172.88 C 164.23399999999998 174.31199999999998 165.05599999999998 175.558 166.24999999999997 176.178 C 166.24999999999997 177.41 166.41099999999997 178.601 166.68499999999997 179.749 L 166.58199999999997 180.97299999999998 L 165.64599999999996 192.08499999999998 L 165.49299999999997 193.90399999999997 C 170.893 196.46 175.507 200.385 179.65 204.815 z M 204.069 278.238 C 210.55599999999998 279.018 217.082 279.481 223.61399999999998 279.615 C 225.05799999999996 284.16700000000003 228.95399999999998 285.737 233.44899999999998 286.97 C 233.85999999999999 287.35400000000004 234.253 287.75800000000004 234.63199999999998 288.17600000000004 L 236.98799999999997 288.17600000000004 C 236.47799999999998 287.29800000000006 235.90299999999996 286.444 235.24399999999997 285.66800000000006 C 235.34099999999998 285.5880000000001 235.43499999999997 285.50700000000006 235.52699999999996 285.42600000000004 C 235.61699999999996 285.50500000000005 235.70999999999995 285.581 235.79899999999995 285.66300000000007 C 236.62599999999995 286.43500000000006 237.37799999999996 287.28400000000005 238.08599999999996 288.17500000000007 L 240.03799999999995 288.17500000000007 C 239.28299999999996 286.58900000000006 238.26799999999994 285.03800000000007 237.03999999999996 283.74500000000006 C 237.04299999999995 283.74100000000004 237.04499999999996 283.7370000000001 237.04799999999997 283.73300000000006 C 237.25999999999996 283.90600000000006 237.46799999999996 284.0830000000001 237.66899999999998 284.2710000000001 C 238.91699999999997 285.4360000000001 239.99599999999998 286.77700000000004 241.00599999999997 288.17500000000007 L 242.49899999999997 288.17500000000007 C 241.60099999999997 285.77400000000006 240.06199999999995 283.30300000000005 238.06899999999996 281.53600000000006 C 238.10899999999995 281.39700000000005 238.14399999999995 281.25100000000003 238.17799999999997 281.10600000000005 C 238.20699999999997 281.13300000000004 238.23799999999997 281.15700000000004 238.26699999999997 281.184 C 239.88299999999998 282.69300000000004 241.21899999999997 284.495 242.48299999999998 286.336 C 242.76699999999997 286.75 243.53599999999997 286.37600000000003 243.36499999999998 285.84000000000003 C 242.24899999999997 282.343 239.682 278.526 236.313 276.83900000000006 C 233.72699999999998 274.6600000000001 230.74099999999999 272.97100000000006 227.50099999999998 271.88000000000005 C 227.50599999999997 271.86800000000005 227.51199999999997 271.857 227.51699999999997 271.845 C 221.42699999999996 268.843 213.67499999999995 265.519 205.63599999999997 262.13800000000003 C 205.42099999999996 262.04800000000006 205.20599999999996 261.95700000000005 204.99099999999996 261.867 C 202.07199999999995 260.641 199.12299999999996 259.409 196.20199999999997 258.182 C 192.14299999999997 256.478 188.14399999999998 254.78500000000003 184.38199999999998 253.138 C 183.21999999999997 256.959 181.28199999999998 260.60200000000003 179.05499999999998 264.109 C 177.32299999999998 266.83599999999996 175.41699999999997 269.481 173.56599999999997 272.06199999999995 C 181.61899999999997 274.39099999999996 189.82899999999998 276.17699999999996 198.12099999999998 277.43299999999994 C 199.90099999999998 277.7029999999999 201.68699999999998 277.9359999999999 203.474 278.1569999999999 C 203.67 278.184 203.869 278.214 204.069 278.238 z M 199.531 476.504 L 205.14100000000002 477.814 C 206.45900000000003 478.122 207.841 478.012 209.09400000000002 477.5 L 212.73300000000003 476.014 L 213.66100000000003 473.583 L 200.84600000000003 469.82700000000006 L 199.531 476.504 z M 243.592 481.877 L 245.4 480.475 L 243.204 472.85200000000003 L 230.705 477.55400000000003 L 233.584 483.507 L 239.867 483.24 C 241.221 483.183 242.523 482.707 243.592 481.877 z" stroke-linecap="round" />
</g>
		<g transform="matrix(1 0 0 1 35.89 15.14)" id="color_x5F_4_1_"  >
<path style="stroke: none; stroke-width: 1; stroke-dasharray: none; stroke-linecap: butt; stroke-dashoffset: 0; stroke-linejoin: miter; stroke-miterlimit: 4; fill: rgb(133,102,216); fill-rule: nonzero; opacity: 1;" vector-effect="non-scaling-stroke"  transform=" translate(-353.46, -315.19)" d="M 438.825 284.258 C 438.84999999999997 283.265 438.86199999999997 282.269 438.86199999999997 281.27 L 438.86199999999997 281.037 C 438.86199999999997 280.832 438.69599999999997 280.666 438.491 280.666 C 438.286 280.666 438.12 280.832 438.12 281.037 L 438.12 281.27 C 438.12 282.263 438.108 283.253 438.083 284.24 C 438.07800000000003 284.445 438.24 284.616 438.44500000000005 284.621 C 438.44900000000007 284.621 438.45200000000006 284.621 438.45400000000006 284.621 C 438.654 284.62 438.82 284.46 438.825 284.258 z M 433.619 313.52 C 433.346 314.47299999999996 433.062 315.421 432.766 316.365 C 432.704 316.56 432.81300000000005 316.769 433.009 316.83 C 433.046 316.842 433.083 316.847 433.12 316.847 C 433.278 316.847 433.425 316.745 433.474 316.587 C 433.77299999999997 315.637 434.05899999999997 314.683 434.33299999999997 313.724 C 434.39 313.527 434.27599999999995 313.32099999999997 434.078 313.265 C 433.878 313.205 433.675 313.323 433.619 313.52 z M 437.967 292.797 C 438.156 292.797 438.318 292.653 438.336 292.461 C 438.43 291.471 438.511 290.478 438.579 289.481 C 438.593 289.276 438.438 289.099 438.234 289.085 C 438.029 289.07599999999996 437.852 289.226 437.83799999999997 289.43 C 437.77 290.42 437.68999999999994 291.407 437.59599999999995 292.39 C 437.57699999999994 292.594 437.7269999999999 292.776 437.9309999999999 292.79499999999996 C 437.943 292.797 437.955 292.797 437.967 292.797 z M 435.587 305.596 C 435.382 306.567 435.16499999999996 307.532 434.936 308.494 C 434.888 308.694 435.01099999999997 308.894 435.21099999999996 308.942 C 435.23999999999995 308.949 435.26899999999995 308.952 435.29699999999997 308.952 C 435.465 308.952 435.618 308.837 435.65799999999996 308.667 C 435.88899999999995 307.698 436.10699999999997 306.726 436.31399999999996 305.75 C 436.35599999999994 305.549 436.22799999999995 305.352 436.027 305.31 C 435.826 305.271 435.63 305.396 435.587 305.596 z M 437.415 297.235 C 437.218 297.212 437.023 297.348 436.99600000000004 297.551 C 436.85900000000004 298.534 436.71000000000004 299.513 436.54800000000006 300.488 C 436.51500000000004 300.69 436.65100000000007 300.882 436.85300000000007 300.915 C 436.8740000000001 300.91900000000004 436.89400000000006 300.92 436.9150000000001 300.92 C 437.0930000000001 300.92 437.25000000000006 300.791 437.28100000000006 300.60900000000004 C 437.4440000000001 299.627 437.59400000000005 298.64200000000005 437.7320000000001 297.653 C 437.759 297.451 437.618 297.264 437.415 297.235 z M 415.753 350.089 C 415.16999999999996 350.89 414.57599999999996 351.684 413.973 352.469 C 413.848 352.632 413.879 352.865 414.041 352.99 C 414.108 353.04200000000003 414.188 353.067 414.267 353.067 C 414.378 353.067 414.488 353.017 414.562 352.922 C 415.16900000000004 352.13000000000005 415.766 351.33200000000005 416.354 350.526 C 416.474 350.361 416.438 350.128 416.272 350.007 C 416.106 349.887 415.873 349.923 415.753 350.089 z M 242.308 368.79 C 242.379 368.855 242.468 368.886 242.557 368.886 C 242.659 368.886 242.76 368.845 242.833 368.76300000000003 C 242.97 368.61100000000005 242.958 368.37600000000003 242.806 368.23900000000003 C 242.07000000000002 367.576 241.34300000000002 366.903 240.62400000000002 366.22200000000004 C 240.47500000000002 366.083 240.24000000000004 366.088 240.09900000000002 366.23600000000005 C 239.95800000000003 366.38500000000005 239.96400000000003 366.62000000000006 240.11300000000003 366.761 C 240.836 367.447 241.568 368.122 242.308 368.79 z M 248.604 374.077 C 248.67200000000003 374.131 248.75300000000001 374.156 248.83300000000003 374.156 C 248.94400000000002 374.156 249.05300000000003 374.107 249.12600000000003 374.01300000000003 C 249.25200000000004 373.85200000000003 249.22400000000005 373.61800000000005 249.06200000000004 373.492 C 248.28100000000003 372.88100000000003 247.50900000000004 372.261 246.74400000000003 371.63100000000003 C 246.58600000000004 371.50000000000006 246.35200000000003 371.524 246.22100000000003 371.68100000000004 C 246.09000000000003 371.83900000000006 246.11300000000003 372.074 246.27100000000004 372.20400000000006 C 247.041 372.839 247.818 373.463 248.604 374.077 z M 428.023 328.89 C 427.61800000000005 329.798 427.202 330.699 426.77500000000003 331.594 C 426.68600000000004 331.78 426.76500000000004 332.001 426.95000000000005 332.09 C 427.00200000000007 332.11499999999995 427.0570000000001 332.126 427.11000000000007 332.126 C 427.2490000000001 332.126 427.3810000000001 332.048 427.44500000000005 331.91499999999996 C 427.87500000000006 331.01399999999995 428.29400000000004 330.10699999999997 428.70200000000006 329.19399999999996 C 428.7850000000001 329.006 428.7010000000001 328.787 428.51400000000007 328.703 C 428.327 328.62 428.107 328.702 428.023 328.89 z M 250.905 186.706 C 250.106 187.29999999999998 249.314 187.904 248.532 188.518 C 248.37 188.645 248.342 188.87800000000001 248.46900000000002 189.039 C 248.54200000000003 189.13299999999998 248.651 189.182 248.76200000000003 189.182 C 248.84200000000004 189.182 248.92300000000003 189.15599999999998 248.99100000000004 189.10299999999998 C 249.76900000000003 188.49299999999997 250.55500000000004 187.89299999999997 251.35000000000005 187.30299999999997 C 251.51500000000004 187.18099999999995 251.54900000000006 186.94799999999998 251.42700000000005 186.78299999999996 C 251.302 186.618 251.069 186.583 250.905 186.706 z M 257.658 182.04 C 256.82 182.576 255.989 183.124 255.16600000000003 183.68099999999998 C 254.99600000000004 183.796 254.95200000000003 184.027 255.06700000000004 184.19699999999997 C 255.13900000000004 184.30299999999997 255.25600000000003 184.35999999999999 255.37500000000003 184.35999999999999 C 255.44600000000003 184.35999999999999 255.51900000000003 184.339 255.58300000000003 184.296 C 256.401 183.742 257.22700000000003 183.19799999999998 258.059 182.665 C 258.232 182.554 258.28200000000004 182.325 258.17100000000005 182.152 C 258.061 181.98 257.83 181.928 257.658 182.04 z M 420.332 343.317 C 419.805 344.158 419.268 344.991 418.721 345.817 C 418.608 345.988 418.65500000000003 346.219 418.825 346.332 C 418.888 346.373 418.959 346.394 419.03 346.394 C 419.15 346.394 419.268 346.335 419.34 346.228 C 419.89099999999996 345.396 420.43199999999996 344.557 420.96099999999996 343.712 C 421.06999999999994 343.538 421.01699999999994 343.30899999999997 420.84299999999996 343.2 C 420.671 343.091 420.441 343.143 420.332 343.317 z M 431.093 321.3 C 430.75300000000004 322.23400000000004 430.40200000000004 323.163 430.038 324.086 C 429.963 324.277 430.056 324.493 430.247 324.56800000000004 C 430.29200000000003 324.586 430.338 324.59400000000005 430.38300000000004 324.59400000000005 C 430.53100000000006 324.59400000000005 430.67100000000005 324.50500000000005 430.72800000000007 324.35900000000004 C 431.09400000000005 323.42900000000003 431.4480000000001 322.494 431.7900000000001 321.55400000000003 C 431.86000000000007 321.36100000000005 431.7610000000001 321.148 431.5680000000001 321.07800000000003 C 431.375 321.009 431.162 321.108 431.093 321.3 z M 349.635 395.551 C 349.834 395.502 349.955 395.3 349.906 395.09999999999997 C 349.856 394.9 349.65500000000003 394.78 349.455 394.82899999999995 C 349.19 394.8949999999999 348.921 394.953 348.655 395.01699999999994 L 348.734 395.76199999999994 C 349.034 395.691 349.336 395.625 349.635 395.551 z M 424.43 336.24 C 423.963 337.116 423.485 337.986 422.996 338.848 C 422.895 339.026 422.95799999999997 339.253 423.137 339.354 C 423.195 339.387 423.257 339.402 423.32 339.402 C 423.449 339.402 423.575 339.334 423.644 339.21299999999997 C 424.135 338.34499999999997 424.616 337.46999999999997 425.086 336.58899999999994 C 425.182 336.40799999999996 425.11400000000003 336.18299999999994 424.933 336.08599999999996 C 424.752 335.992 424.527 336.059 424.43 336.24 z M 264.716 177.858 C 263.843 178.335 262.97700000000003 178.823 262.117 179.321 C 261.939 179.424 261.879 179.651 261.982 179.829 C 262.05100000000004 179.948 262.17600000000004 180.014 262.30400000000003 180.014 C 262.367 180.014 262.43100000000004 179.99800000000002 262.49 179.964 C 263.344 179.469 264.205 178.984 265.072 178.51 C 265.252 178.41199999999998 265.318 178.18599999999998 265.22 178.006 C 265.122 177.825 264.896 177.759 264.716 177.858 z M 255.255 378.916 C 255.319 378.96 255.391 378.98 255.463 378.98 C 255.582 378.98 255.69899999999998 378.923 255.771 378.817 C 255.886 378.647 255.84099999999998 378.416 255.671 378.301 C 254.849 377.745 254.035 377.18 253.22799999999998 376.60499999999996 C 253.06099999999998 376.48699999999997 252.82999999999998 376.52599999999995 252.70999999999998 376.69199999999995 C 252.59099999999998 376.8589999999999 252.62999999999997 377.09099999999995 252.79699999999997 377.2099999999999 C 253.609 377.788 254.428 378.357 255.255 378.916 z M 338.59 397.737 C 338.60799999999995 397.737 338.62699999999995 397.73600000000005 338.645 397.733 C 339.633 397.586 340.616 397.426 341.596 397.254 C 341.798 397.218 341.933 397.026 341.898 396.82500000000005 C 341.863 396.62200000000007 341.65900000000005 396.482 341.468 396.523 C 340.494 396.69300000000004 339.517 396.85200000000003 338.536 396.999 C 338.333 397.029 338.193 397.218 338.223 397.42100000000005 C 338.25 397.604 338.409 397.737 338.59 397.737 z M 330.451 398.664 C 330.461 398.664 330.471 398.663 330.481 398.663 C 331.478 398.58500000000004 332.46999999999997 398.494 333.45799999999997 398.39 C 333.662 398.36899999999997 333.811 398.186 333.789 397.98199999999997 C 333.768 397.77799999999996 333.58099999999996 397.626 333.381 397.65099999999995 C 332.39899999999994 397.75299999999993 331.41299999999995 397.84399999999994 330.42299999999994 397.92199999999997 C 330.21799999999996 397.938 330.06499999999994 398.116 330.08199999999994 398.32099999999997 C 330.097 398.516 330.259 398.664 330.451 398.664 z M 322.271 399.025 C 322.272 399.025 322.273 399.025 322.27500000000003 399.025 C 323.273 399.015 324.26900000000006 398.993 325.26000000000005 398.959 C 325.46500000000003 398.952 325.62500000000006 398.78000000000003 325.61800000000005 398.574 C 325.61000000000007 398.369 325.43500000000006 398.214 325.23400000000004 398.216 C 324.24800000000005 398.25 323.26000000000005 398.272 322.26800000000003 398.282 C 322.06300000000005 398.284 321.898 398.452 321.90000000000003 398.657 C 321.902 398.861 322.067 399.025 322.271 399.025 z M 305.557 397.639 C 305.531 397.843 305.67400000000004 398.029 305.87800000000004 398.055 C 306.16300000000007 398.092 306.45000000000005 398.12 306.73500000000007 398.154 L 306.6550000000001 397.397 C 306.4280000000001 397.36899999999997 306.2000000000001 397.347 305.97300000000007 397.318 C 305.773 397.294 305.584 397.437 305.557 397.639 z M 314.059 398.824 C 315.05100000000004 398.882 316.04600000000005 398.92900000000003 317.045 398.963 C 317.04900000000004 398.963 317.053 398.963 317.058 398.963 C 317.257 398.963 317.42199999999997 398.805 317.429 398.60400000000004 C 317.436 398.39900000000006 317.27599999999995 398.22700000000003 317.07 398.22 C 316.078 398.187 315.089 398.141 314.103 398.083 C 313.903 398.06500000000005 313.72200000000004 398.22700000000003 313.71000000000004 398.432 C 313.69800000000004 398.637 313.854 398.812 314.059 398.824 z M 279.619 171.022 C 278.685 171.374 277.757 171.736 276.83500000000004 172.111 C 276.64500000000004 172.188 276.55300000000005 172.405 276.63000000000005 172.595 C 276.6890000000001 172.739 276.82800000000003 172.827 276.97400000000005 172.827 C 277.0210000000001 172.827 277.06800000000004 172.818 277.11400000000003 172.8 C 278.03000000000003 172.428 278.95200000000006 172.067 279.88100000000003 171.71800000000002 C 280.07300000000004 171.64600000000002 280.17 171.43200000000002 280.098 171.24 C 280.025 171.047 279.812 170.95 279.619 171.022 z M 295.361 166.329 C 294.387 166.54600000000002 293.417 166.775 292.452 167.017 C 292.253 167.067 292.132 167.268 292.182 167.46699999999998 C 292.224 167.636 292.375 167.748 292.54200000000003 167.748 C 292.572 167.748 292.60200000000003 167.744 292.632 167.737 C 293.591 167.498 294.555 167.26999999999998 295.523 167.054 C 295.723 167.00900000000001 295.84900000000005 166.811 295.80400000000003 166.611 C 295.759 166.411 295.562 166.285 295.361 166.329 z M 437.996 275.839 C 438.005 276.038 438.169 276.194 438.36699999999996 276.194 C 438.37199999999996 276.194 438.378 276.194 438.38399999999996 276.194 C 438.58899999999994 276.185 438.74699999999996 276.011 438.73799999999994 275.80600000000004 C 438.73499999999996 275.747 438.72999999999996 275.689 438.72799999999995 275.63000000000005 C 438.48099999999994 275.62200000000007 438.23099999999994 275.59900000000005 437.98099999999994 275.57000000000005 C 437.984 275.66 437.992 275.749 437.996 275.839 z M 287.407 168.398 C 286.45 168.683 285.49899999999997 168.98 284.553 169.289 C 284.358 169.35199999999998 284.252 169.56199999999998 284.315 169.75699999999998 C 284.366 169.914 284.512 170.01299999999998 284.668 170.01299999999998 C 284.706 170.01299999999998 284.745 170.00699999999998 284.783 169.99499999999998 C 285.723 169.688 286.668 169.39399999999998 287.618 169.10999999999999 C 287.815 169.052 287.927 168.845 287.868 168.648 C 287.811 168.452 287.604 168.339 287.407 168.398 z M 259.657 381.75 C 260.508 382.271 261.365 382.782 262.22999999999996 383.281 C 262.289 383.315 262.35299999999995 383.331 262.41599999999994 383.331 C 262.5439999999999 383.331 262.6689999999999 383.264 262.73799999999994 383.14500000000004 C 262.84099999999995 382.968 262.7799999999999 382.74000000000007 262.60299999999995 382.63800000000003 C 261.74399999999997 382.141 260.89199999999994 381.63300000000004 260.04599999999994 381.115 C 259.8709999999999 381.008 259.64199999999994 381.063 259.5349999999999 381.238 C 259.427 381.415 259.482 381.643 259.657 381.75 z M 266.821 385.802 C 267.706 386.26300000000003 268.598 386.713 269.49600000000004 387.151 C 269.54900000000004 387.176 269.60400000000004 387.189 269.65900000000005 387.189 C 269.79600000000005 387.189 269.92900000000003 387.112 269.99300000000005 386.981 C 270.083 386.79699999999997 270.00700000000006 386.574 269.82300000000004 386.484 C 268.93000000000006 386.048 268.04400000000004 385.601 267.165 385.143 C 266.982 385.04799999999994 266.75800000000004 385.118 266.66400000000004 385.301 C 266.568 385.483 266.639 385.708 266.821 385.802 z M 272.045 174.18 C 271.141 174.595 270.243 175.02100000000002 269.35200000000003 175.457 C 269.168 175.547 269.09200000000004 175.76999999999998 269.182 175.954 C 269.247 176.085 269.379 176.162 269.516 176.162 C 269.571 176.162 269.627 176.15 269.67900000000003 176.124 C 270.564 175.69 271.456 175.267 272.355 174.855 C 272.541 174.76899999999998 272.623 174.54899999999998 272.538 174.362 C 272.452 174.176 272.232 174.095 272.045 174.18 z M 289.774 394.819 C 290.733 395.083 291.697 395.33500000000004 292.666 395.575 C 292.69599999999997 395.582 292.726 395.586 292.756 395.586 C 292.92299999999994 395.586 293.07399999999996 395.473 293.116 395.30400000000003 C 293.16499999999996 395.105 293.044 394.903 292.84499999999997 394.85400000000004 C 291.883 394.61500000000007 290.92499999999995 394.36500000000007 289.972 394.10200000000003 C 289.775 394.04900000000004 289.57 394.16400000000004 289.515 394.362 C 289.461 394.56 289.577 394.765 289.774 394.819 z M 274.254 389.345 C 275.17 389.742 276.091 390.12800000000004 277.01800000000003 390.50300000000004 C 277.064 390.521 277.11100000000005 390.53000000000003 277.15700000000004 390.53000000000003 C 277.30400000000003 390.53000000000003 277.44300000000004 390.442 277.50100000000003 390.298 C 277.57800000000003 390.108 277.48600000000005 389.891 277.29600000000005 389.814 C 276.374 389.442 275.458 389.05800000000005 274.54800000000006 388.663 C 274.36100000000005 388.581 274.14200000000005 388.668 274.0590000000001 388.856 C 273.98 389.044 274.066 389.263 274.254 389.345 z M 297.77 396.72 C 298.745 396.91600000000005 299.724 397.1 300.70799999999997 397.271 C 300.729 397.27500000000003 300.751 397.277 300.772 397.277 C 300.949 397.277 301.106 397.15 301.138 396.969 C 301.173 396.767 301.03799999999995 396.574 300.83599999999996 396.539 C 299.859 396.368 298.88499999999993 396.185 297.917 395.991 C 297.71599999999995 395.949 297.52 396.08099999999996 297.47999999999996 396.282 C 297.439 396.484 297.569 396.68 297.77 396.72 z M 281.923 392.356 C 282.865 392.688 283.812 393.009 284.764 393.317 C 284.802 393.329 284.841 393.335 284.879 393.335 C 285.036 393.335 285.182 393.23499999999996 285.232 393.078 C 285.295 392.883 285.18800000000005 392.673 284.99300000000005 392.60999999999996 C 284.047 392.30299999999994 283.10600000000005 391.98499999999996 282.1700000000001 391.65399999999994 C 281.97600000000006 391.58399999999995 281.76400000000007 391.68699999999995 281.6960000000001 391.87999999999994 C 281.628 392.076 281.729 392.288 281.923 392.356 z M 232.79 203.362 C 232.131 204.109 231.481 204.864 230.84 205.628 C 230.708 205.785 230.729 206.01899999999998 230.886 206.15099999999998 C 230.956 206.20899999999997 231.04 206.23799999999997 231.124 206.23799999999997 C 231.23 206.23799999999997 231.335 206.19299999999998 231.409 206.10499999999996 C 232.046 205.34599999999998 232.69199999999998 204.59499999999997 233.34699999999998 203.85299999999995 C 233.48299999999998 203.69899999999996 233.468 203.46499999999995 233.314 203.32899999999995 C 233.162 203.193 232.926 203.208 232.79 203.362 z M 213.523 329.248 C 213.585 329.38599999999997 213.72 329.468 213.862 329.468 C 213.912 329.468 213.964 329.458 214.013 329.43600000000004 C 214.20000000000002 329.35200000000003 214.284 329.13200000000006 214.201 328.94500000000005 C 213.799 328.0450000000001 213.408 327.13900000000007 213.028 326.22700000000003 C 212.95 326.03700000000003 212.732 325.951 212.542 326.02700000000004 C 212.353 326.10600000000005 212.263 326.32400000000007 212.342 326.51300000000003 C 212.725 327.43 213.118 328.342 213.523 329.248 z M 217.127 336.612 C 217.19400000000002 336.737 217.322 336.809 217.455 336.809 C 217.514 336.809 217.574 336.795 217.62900000000002 336.76500000000004 C 217.81000000000003 336.66900000000004 217.87900000000002 336.444 217.782 336.26200000000006 C 217.318 335.3910000000001 216.864 334.51400000000007 216.42100000000002 333.6310000000001 C 216.33 333.44700000000006 216.10700000000003 333.3730000000001 215.92300000000003 333.4650000000001 C 215.74000000000004 333.5570000000001 215.66500000000002 333.78100000000006 215.75800000000004 333.9630000000001 C 216.203 334.853 216.659 335.736 217.127 336.612 z M 210.445 321.653 C 210.5 321.803 210.642 321.89700000000005 210.79399999999998 321.89700000000005 C 210.83599999999998 321.89700000000005 210.879 321.89000000000004 210.921 321.874 C 211.114 321.80400000000003 211.213 321.59000000000003 211.143 321.39700000000005 C 210.804 320.4680000000001 210.476 319.535 210.16 318.59400000000005 C 210.095 318.40000000000003 209.885 318.29600000000005 209.689 318.36000000000007 C 209.495 318.42500000000007 209.39 318.6360000000001 209.45499999999998 318.8300000000001 C 209.774 319.778 210.104 320.718 210.445 321.653 z M 410.715 356.523 C 410.078 357.281 409.43199999999996 358.031 408.775 358.773 C 408.63899999999995 358.92600000000004 408.65299999999996 359.161 408.80699999999996 359.297 C 408.87699999999995 359.36 408.965 359.391 409.05299999999994 359.391 C 409.1549999999999 359.391 409.2579999999999 359.34900000000005 409.33099999999996 359.266 C 409.99199999999996 358.519 410.643 357.76500000000004 411.28399999999993 357.00100000000003 C 411.41599999999994 356.84400000000005 411.39599999999996 356.61 411.23799999999994 356.478 C 411.082 356.346 410.847 356.367 410.715 356.523 z M 221.238 343.712 C 221.309 343.824 221.43 343.88599999999997 221.553 343.88599999999997 C 221.621 343.88599999999997 221.689 343.868 221.75 343.82899999999995 C 221.924 343.71999999999997 221.976 343.49099999999993 221.867 343.31699999999995 C 221.34199999999998 342.48099999999994 220.828 341.63599999999997 220.32399999999998 340.78499999999997 C 220.21999999999997 340.609 219.992 340.551 219.815 340.654 C 219.639 340.759 219.57999999999998 340.987 219.685 341.163 C 220.193 342.021 220.711 342.87 221.238 343.712 z M 214.13 233.756 C 214.534 232.848 214.94899999999998 231.947 215.375 231.051 C 215.463 230.86599999999999 215.384 230.64399999999998 215.199 230.55599999999998 C 215.013 230.469 214.792 230.547 214.704 230.73199999999997 C 214.299 231.58399999999997 213.905 232.44199999999998 213.52 233.30399999999997 C 213.66 233.515 213.79600000000002 233.72299999999998 213.935 233.93399999999997 C 214.017 233.898 214.09 233.844 214.13 233.756 z M 207.901 313.839 C 207.948 314.002 208.096 314.108 208.258 314.108 C 208.292 314.108 208.327 314.104 208.36100000000002 314.094 C 208.55800000000002 314.037 208.67200000000003 313.831 208.615 313.635 C 208.342 312.685 208.08100000000002 311.729 207.83100000000002 310.769 C 207.77900000000002 310.57 207.57700000000003 310.45300000000003 207.37800000000001 310.503 C 207.18 310.555 207.061 310.758 207.11200000000002 310.95599999999996 C 207.363 311.921 207.626 312.883 207.901 313.839 z M 203.373 278.398 C 203.35 279.35200000000003 203.339 280.309 203.339 281.269 L 203.339 281.386 C 203.339 281.591 203.505 281.757 203.71 281.757 C 203.91500000000002 281.757 204.08100000000002 281.591 204.08100000000002 281.386 L 204.08100000000002 281.269 C 204.08100000000002 280.315 204.09300000000002 279.36400000000003 204.115 278.416 C 204.11700000000002 278.351 204.097 278.292 204.068 278.238 C 203.86800000000002 278.214 203.67000000000002 278.183 203.47 278.158 C 203.414 278.224 203.375 278.306 203.373 278.398 z M 205.327 302.935 C 205.51 303.916 205.70499999999998 304.89300000000003 205.911 305.866 C 205.948 306.041 206.103 306.161 206.274 306.161 C 206.299 306.161 206.326 306.158 206.352 306.153 C 206.553 306.11 206.681 305.913 206.638 305.713 C 206.43200000000002 304.74600000000004 206.239 303.77500000000003 206.058 302.79900000000004 C 206.021 302.59700000000004 205.827 302.46500000000003 205.625 302.502 C 205.423 302.539 205.29 302.733 205.327 302.935 z M 205.327 261.739 C 205.192 261.714 205.068 261.77099999999996 204.987 261.86899999999997 C 205.202 261.96 205.417 262.04999999999995 205.632 262.14 C 205.65 261.947 205.52 261.77 205.327 261.739 z M 357.306 392.58 C 356.366 392.88599999999997 355.421 393.18 354.469 393.462 C 354.272 393.521 354.161 393.727 354.219 393.924 C 354.267 394.085 354.415 394.19 354.575 394.19 C 354.61 394.19 354.645 394.185 354.681 394.175 C 355.638 393.891 356.589 393.595 357.53499999999997 393.28700000000003 C 357.72999999999996 393.223 357.837 393.014 357.77399999999994 392.819 C 357.71 392.623 357.5 392.517 357.306 392.58 z M 219.006 223.286 C 218.828 223.186 218.6 223.248 218.5 223.427 C 218.009 224.296 217.529 225.171 217.06 226.053 C 216.964 226.234 217.032 226.459 217.213 226.555 C 217.268 226.585 217.328 226.59900000000002 217.387 226.59900000000002 C 217.52 226.59900000000002 217.649 226.52800000000002 217.715 226.40200000000002 C 218.181 225.525 218.65800000000002 224.656 219.14600000000002 223.793 C 219.247 223.614 219.184 223.387 219.006 223.286 z M 223.309 216.304 C 223.138 216.19 222.907 216.237 222.794 216.409 C 222.244 217.24099999999999 221.704 218.081 221.175 218.927 C 221.066 219.101 221.119 219.32999999999998 221.293 219.439 C 221.354 219.477 221.423 219.49599999999998 221.49 219.49599999999998 C 221.614 219.49599999999998 221.735 219.43399999999997 221.805 219.32199999999997 C 222.33100000000002 218.48099999999997 222.86700000000002 217.64699999999996 223.41400000000002 216.81999999999996 C 223.527 216.647 223.481 216.417 223.309 216.304 z M 225.836 350.512 C 225.90900000000002 350.612 226.02200000000002 350.665 226.137 350.665 C 226.213 350.665 226.289 350.642 226.355 350.594 C 226.521 350.473 226.557 350.241 226.43699999999998 350.075 C 225.855 349.276 225.283 348.469 224.72099999999998 347.654 C 224.60399999999998 347.485 224.37199999999999 347.443 224.20399999999998 347.55899999999997 C 224.03499999999997 347.676 223.99299999999997 347.907 224.10899999999998 348.07599999999996 C 224.675 348.896 225.25 349.708 225.836 350.512 z M 393.119 373.508 C 392.34000000000003 374.11699999999996 391.55300000000005 374.716 390.75800000000004 375.306 C 390.593 375.428 390.55800000000005 375.661 390.68100000000004 375.825 C 390.754 375.923 390.86600000000004 375.97499999999997 390.97900000000004 375.97499999999997 C 391.05600000000004 375.97499999999997 391.134 375.95099999999996 391.20000000000005 375.902 C 391.999 375.30899999999997 392.79200000000003 374.70599999999996 393.57500000000005 374.09299999999996 C 393.737 373.967 393.766 373.73299999999995 393.63900000000007 373.57199999999995 C 393.513 373.407 393.278 373.381 393.119 373.508 z M 238.44 197.393 C 237.731 198.092 237.03 198.8 236.338 199.517 C 236.195 199.665 236.2 199.9 236.34699999999998 200.042 C 236.41899999999998 200.112 236.51199999999997 200.14600000000002 236.605 200.14600000000002 C 236.702 200.14600000000002 236.79899999999998 200.108 236.87199999999999 200.032 C 237.559 199.32000000000002 238.25599999999997 198.616 238.96099999999998 197.92100000000002 C 239.10699999999997 197.77700000000002 239.10899999999998 197.54200000000003 238.96499999999997 197.39600000000002 C 238.82099999999997 197.25 238.586 197.249 238.44 197.393 z M 386.52 378.307 C 385.702 378.86 384.876 379.403 384.042 379.935 C 383.86899999999997 380.046 383.818 380.275 383.928 380.448 C 383.999 380.55899999999997 384.12 380.62 384.241 380.62 C 384.31 380.62 384.37899999999996 380.601 384.441 380.562 C 385.28 380.026 386.111 379.48 386.935 378.922 C 387.105 378.807 387.15 378.577 387.034 378.406 C 386.921 378.237 386.69 378.192 386.52 378.307 z M 203.812 286.229 C 203.607 286.238 203.449 286.412 203.458 286.61699999999996 C 203.503 287.61499999999995 203.56 288.60999999999996 203.629 289.60099999999994 C 203.643 289.79699999999997 203.80599999999998 289.94699999999995 203.999 289.94699999999995 C 204.00799999999998 289.94699999999995 204.016 289.94699999999995 204.025 289.94599999999997 C 204.23000000000002 289.93199999999996 204.38400000000001 289.75399999999996 204.37 289.54999999999995 C 204.30100000000002 288.56499999999994 204.245 287.57599999999996 204.20000000000002 286.58399999999995 C 204.19 286.378 204.014 286.211 203.812 286.229 z M 399.371 368.259 C 398.635 368.921 397.892 369.574 397.13899999999995 370.218 C 396.98299999999995 370.351 396.965 370.586 397.09799999999996 370.742 C 397.17099999999994 370.82800000000003 397.27599999999995 370.872 397.37999999999994 370.872 C 397.46599999999995 370.872 397.55099999999993 370.843 397.62199999999996 370.783 C 398.37899999999996 370.135 399.12699999999995 369.478 399.86699999999996 368.813 C 400.02 368.676 400.032 368.441 399.895 368.288 C 399.758 368.134 399.522 368.122 399.371 368.259 z M 244.489 191.833 C 243.733 192.481 242.98600000000002 193.138 242.246 193.806 C 242.09400000000002 193.943 242.08200000000002 194.17800000000003 242.21900000000002 194.33100000000002 C 242.29200000000003 194.412 242.39300000000003 194.454 242.49500000000003 194.454 C 242.58400000000003 194.454 242.67300000000003 194.422 242.74400000000003 194.358 C 243.47900000000004 193.695 244.22200000000004 193.042 244.97300000000004 192.398 C 245.12900000000005 192.265 245.14600000000004 192.03 245.01300000000003 191.874 C 244.88 191.718 244.645 191.7 244.489 191.833 z M 405.246 362.589 C 404.558 363.301 403.861 364.004 403.155 364.699 C 403.008 364.843 403.00699999999995 365.07800000000003 403.15099999999995 365.224 C 403.22399999999993 365.298 403.31999999999994 365.335 403.41599999999994 365.335 C 403.50999999999993 365.335 403.60499999999996 365.299 403.67599999999993 365.22799999999995 C 404.3859999999999 364.52899999999994 405.0879999999999 363.82099999999997 405.7799999999999 363.10499999999996 C 405.9229999999999 362.95699999999994 405.9189999999999 362.722 405.7709999999999 362.58 C 405.623 362.438 405.387 362.442 405.246 362.589 z M 230.897 356.978 C 230.971 357.06600000000003 231.076 357.111 231.182 357.111 C 231.266 357.111 231.351 357.08299999999997 231.421 357.024 C 231.578 356.892 231.59799999999998 356.658 231.46599999999998 356.501 C 230.82999999999998 355.74399999999997 230.20299999999997 354.97799999999995 229.58599999999998 354.205 C 229.458 354.044 229.224 354.018 229.064 354.14599999999996 C 228.904 354.27399999999994 228.878 354.50699999999995 229.005 354.66799999999995 C 229.626 355.447 230.257 356.216 230.897 356.978 z M 364.978 389.784 C 364.06100000000004 390.155 363.13800000000003 390.515 362.21000000000004 390.863 C 362.01800000000003 390.935 361.92100000000005 391.149 361.99300000000005 391.341 C 362.04900000000004 391.49 362.19000000000005 391.582 362.34000000000003 391.582 C 362.384 391.582 362.42800000000005 391.575 362.471 391.558 C 363.40500000000003 391.20799999999997 364.333 390.846 365.25600000000003 390.473 C 365.446 390.396 365.538 390.17900000000003 365.461 389.98900000000003 C 365.384 389.799 365.167 389.708 364.978 389.784 z M 372.416 386.465 C 371.53 386.89799999999997 370.638 387.32 369.739 387.731 C 369.553 387.817 369.471 388.037 369.55499999999995 388.224 C 369.61699999999996 388.36 369.75199999999995 388.441 369.893 388.441 C 369.945 388.441 369.99699999999996 388.42999999999995 370.04799999999994 388.40799999999996 C 370.9529999999999 387.99399999999997 371.85099999999994 387.56899999999996 372.74199999999996 387.133 C 372.926 387.043 373.00199999999995 386.82 372.912 386.63599999999997 C 372.823 386.451 372.598 386.377 372.416 386.465 z M 234.278 360.713 L 234.296 360.54200000000003 C 234.276 360.601 234.267 360.652 234.278 360.713 z M 379.609 382.633 C 378.75399999999996 383.128 377.893 383.61199999999997 377.025 384.084 C 376.84499999999997 384.183 376.77799999999996 384.408 376.876 384.588 C 376.943 384.71200000000005 377.07099999999997 384.78200000000004 377.202 384.78200000000004 C 377.262 384.78200000000004 377.323 384.76800000000003 377.38 384.737 C 378.253 384.26000000000005 379.12 383.774 379.98 383.276 C 380.158 383.17400000000004 380.219 382.946 380.11600000000004 382.769 C 380.014 382.591 379.784 382.53 379.609 382.633 z M 227.567 209.709 C 226.961 210.5 226.365 211.3 225.77800000000002 212.107 C 225.657 212.273 225.69400000000002 212.505 225.86 212.626 C 225.92600000000002 212.674 226.002 212.697 226.078 212.697 C 226.193 212.697 226.306 212.644 226.379 212.544 C 226.962 211.74200000000002 227.55499999999998 210.948 228.15699999999998 210.162 C 228.28199999999998 209.999 228.25099999999998 209.76600000000002 228.088 209.64100000000002 C 227.925 209.516 227.692 209.547 227.567 209.709 z M 363.059 206.714 C 366.745 206.683 369.75800000000004 209.645 369.79 213.32999999999998 C 369.821 217.015 366.85900000000004 220.028 363.173 220.05999999999997 C 359.487 220.09099999999998 356.474 217.12899999999996 356.442 213.44399999999996 C 356.41 209.758 359.373 206.745 363.059 206.714 z M 363.06 146.381 C 366.746 146.351 369.758 149.315 369.788 153 C 369.81800000000004 156.685 366.854 159.697 363.168 159.727 C 359.482 159.757 356.47 156.793 356.44 153.108 C 356.40999999999997 149.423 359.374 146.41 363.06 146.381 z M 329.8 176.288 C 326.12100000000004 176.288 323.128 179.281 323.128 182.961 C 323.128 186.64100000000002 326.121 189.63400000000001 329.8 189.63400000000001 C 333.48 189.63400000000001 336.473 186.64100000000002 336.473 182.961 C 336.473 179.281 333.479 176.288 329.8 176.288 z M 429.101 234.804 L 429.101 200.165 L 416.126 200.165 L 399.13899999999995 217.152 L 376.775 217.152 C 375.12 223.158 369.62199999999996 227.588 363.097 227.588 C 355.267 227.588 348.89799999999997 221.218 348.89799999999997 213.38899999999998 C 348.89799999999997 205.55999999999997 355.268 199.18999999999997 363.097 199.18999999999997 C 369.62199999999996 199.18999999999997 375.11899999999997 203.61999999999998 376.775 209.62599999999998 L 396.02299999999997 209.62599999999998 L 413.01 192.63899999999998 L 429.101 192.63899999999998 L 429.101 186.724 L 343.476 186.724 C 341.821 192.73 336.324 197.16 329.799 197.16 C 321.96999999999997 197.16 315.601 190.79 315.601 182.96099999999998 C 315.601 175.13199999999998 321.971 168.76199999999997 329.799 168.76199999999997 C 336.32399999999996 168.76199999999997 341.82099999999997 173.19199999999998 343.476 179.19799999999998 L 429.101 179.19799999999998 L 429.101 173.813 L 413.01 173.813 L 396.02299999999997 156.826 L 376.775 156.826 C 375.12 162.832 369.62199999999996 167.262 363.097 167.262 C 355.267 167.262 348.89799999999997 160.892 348.89799999999997 153.063 C 348.89799999999997 145.23399999999998 355.268 138.86399999999998 363.097 138.86399999999998 C 369.62199999999996 138.86399999999998 375.11899999999997 143.29399999999998 376.775 149.29999999999998 L 399.13899999999995 149.29999999999998 L 416.126 166.28699999999998 L 429.101 166.28699999999998 L 429.101 132.02799999999996 L 394.209 132.02799999999996 L 392.106 132.02799999999996 L 365.07 132.02799999999996 L 363.017 132.02799999999996 L 307.04 132.02799999999996 C 301.356 132.02799999999996 296.74800000000005 136.63599999999997 296.74800000000005 142.31999999999996 L 296.74800000000005 224.51299999999998 C 296.74800000000005 230.19699999999997 301.35600000000005 234.80499999999998 307.04 234.80499999999998 L 307.66 234.80499999999998 L 303.329 248.34099999999998 L 315.048 248.34099999999998 L 331.248 234.80499999999998 L 365.06899999999996 234.80499999999998 L 429.101 234.804 L 429.101 234.804 z M 331.559 465.37 C 331.07800000000003 468.067 330.89300000000003 470.794 330.963 473.514 C 333.12800000000004 477.87 335.776 482.028 337.85400000000004 486.406 C 339.72800000000007 490.355 341.51300000000003 494.345 343.254 498.354 L 349.23600000000005 498.354 C 348.68300000000005 497.306 348.12600000000003 496.25899999999996 347.576 495.209 C 342.334 485.207 337.115 475.195 331.559 465.37 z M 350.453 448.727 C 350.00199999999995 445.00899999999996 349.573 441.28799999999995 349.18699999999995 437.56 C 347.62199999999996 438.744 346.12999999999994 440.022 344.72099999999995 441.384 C 345.58299999999997 444.01 346.46199999999993 446.63 347.37899999999996 449.237 C 347.43699999999995 449.40200000000004 347.49299999999994 449.567 347.55199999999996 449.732 C 347.70399999999995 450.16 347.84599999999995 450.59000000000003 347.99999999999994 451.01700000000005 C 348.68299999999994 452.90100000000007 345.68199999999996 453.7060000000001 345.00699999999995 451.84200000000004 C 344.80699999999996 451.29 344.61899999999997 450.73400000000004 344.4239999999999 450.18000000000006 C 344.36599999999993 450.01400000000007 344.30799999999994 449.84900000000005 344.24999999999994 449.68300000000005 C 343.58199999999994 447.76900000000006 342.9309999999999 445.84900000000005 342.29499999999996 443.92400000000004 C 341.763 444.51800000000003 341.23599999999993 445.115 340.73499999999996 445.73400000000004 C 341.26099999999997 447.134 341.76899999999995 448.54 342.282 449.94500000000005 C 342.34299999999996 450.112 342.405 450.27900000000005 342.466 450.446 C 347.149 463.32500000000005 351.28700000000003 476.39200000000005 355.31 489.499 L 352.818 466.004 C 351.964 460.437 351.203 454.85400000000004 350.519 449.25800000000004 C 350.496 449.08 350.474 448.903 350.453 448.727 z M 339.144 450.303 C 338.943 449.755 338.749 449.204 338.546 448.657 C 338.138 449.24899999999997 337.766 449.863 337.387 450.474 C 337.274 450.657 337.151 450.834 337.04 451.018 C 336.416 452.05499999999995 335.82300000000004 453.10999999999996 335.285 454.193 C 337.46000000000004 458.29699999999997 339.624 462.407 341.617 466.602 C 342.47 468.399 339.793 469.972 338.937 468.169 C 337.273 464.66499999999996 335.494 461.21999999999997 333.692 457.788 C 333.289 458.827 332.925 459.88300000000004 332.607 460.954 C 339.129 472.303 345.15500000000003 483.924 351.23900000000003 495.516 C 351.737 496.46500000000003 352.24800000000005 497.40700000000004 352.752 498.353 L 354.803 498.353 C 349.949 482.39300000000003 345.053 466.449 339.324 450.794 C 339.262 450.63 339.204 450.466 339.144 450.303 z M 356.652 470.415 C 358.183 479.78700000000003 359.976 489.10900000000004 362.123 498.353 L 368.88 498.353 C 368.145 479.987 370.954 461.658 374.381 443.362 C 374.421 443.14700000000005 374.46099999999996 442.932 374.50199999999995 442.71700000000004 C 375.42299999999994 437.81800000000004 376.38399999999996 432.92100000000005 377.33199999999994 428.02700000000004 C 377.11999999999995 428.023 376.90899999999993 428.011 376.69699999999995 428.011 C 373.0079999999999 428.00300000000004 369.35099999999994 428.502 365.804 429.43300000000005 C 365.412 434.802 365.109 440.17300000000006 364.976 445.54600000000005 C 364.971 445.737 364.966 445.92800000000005 364.962 446.119 C 364.813 452.812 364.941 459.51000000000005 365.567 466.218 C 365.753 468.21000000000004 362.647 468.19 362.463 466.218 C 361.862 459.774 361.719 453.339 361.84000000000003 446.909 C 361.84400000000005 446.719 361.84900000000005 446.53 361.853 446.34 C 361.966 441.02099999999996 362.25100000000003 435.705 362.63 430.39099999999996 C 359.227 431.556 355.965 433.13399999999996 352.9 435.039 L 356.652 470.415 z M 400.159 480.053 C 403.584 471.148 406.993 462.182 411.183 453.604 C 412.18399999999997 451.555 413.216 449.50399999999996 414.229 447.441 C 413.752 446.81399999999996 413.26099999999997 446.198 412.75399999999996 445.594 C 411.354 448.215 409.979 450.849 408.64899999999994 453.509 C 404.07399999999996 462.654 399.91999999999996 471.985 395.76499999999993 481.325 C 393.35299999999995 486.747 390.5449999999999 492.465 387.9799999999999 498.352 L 393.3819999999999 498.352 C 395.574 492.228 397.824 486.125 400.159 480.053 z M 371.947 498.353 L 377.301 498.353 C 380.49399999999997 482.44800000000004 386.02299999999997 466.857 391.59 451.877 C 393.82899999999995 445.85200000000003 396.219 439.889 398.74699999999996 433.988 C 398.52599999999995 433.864 398.299 433.752 398.07599999999996 433.632 C 397.85499999999996 433.513 397.633 433.394 397.41099999999994 433.279 C 395.3299999999999 432.199 393.17599999999993 431.267 390.9669999999999 430.5 C 390.20399999999995 432.762 389.46399999999994 435.031 388.7559999999999 437.309 C 388.6789999999999 437.55600000000004 388.6049999999999 437.80400000000003 388.5299999999999 438.05100000000004 C 386.43299999999994 444.87300000000005 384.6339999999999 451.77900000000005 383.41399999999993 458.84800000000007 C 383.07399999999996 460.8160000000001 380.0829999999999 459.9770000000001 380.42099999999994 458.0230000000001 C 381.5009999999999 451.7660000000001 383.0349999999999 445.6360000000001 384.8259999999999 439.5800000000001 C 384.89699999999993 439.3390000000001 384.9719999999999 439.1000000000001 385.0439999999999 438.86000000000007 C 385.9749999999999 435.75000000000006 386.9669999999999 432.6570000000001 388.00699999999995 429.5780000000001 C 385.50999999999993 428.8960000000001 382.95899999999995 428.41800000000006 380.37299999999993 428.1860000000001 C 379.49999999999994 432.6570000000001 378.61599999999993 437.1310000000001 377.7629999999999 441.6070000000001 C 377.72099999999995 441.8260000000001 377.6809999999999 442.0440000000001 377.63999999999993 442.2630000000001 C 374.096 460.927 371.144 479.638 371.947 498.353 z M 392.536 480.984 C 397.179 470.61699999999996 401.761 460.236 406.897 450.09799999999996 C 408.082 447.75899999999996 409.315 445.44999999999993 410.562 443.14799999999997 C 409.872 442.42699999999996 409.16 441.72799999999995 408.42900000000003 441.049 C 406.185 444.671 403.93600000000004 448.291 401.54900000000004 451.823 C 400.43500000000006 453.471 397.747 451.916 398.869 450.256 C 401.36400000000003 446.56399999999996 403.711 442.777 406.057 438.989 C 404.57300000000004 437.77599999999995 403.024 436.643 401.416 435.604 C 399.006 441.245 396.725 446.94399999999996 394.585 452.7 C 389.12 467.404 383.657 482.727 380.466 498.351 L 384.645 498.351 C 387.213 492.352 390.057 486.521 392.536 480.984 z M 423.64 475.655 C 423.693 471.98199999999997 423.325 468.303 422.47999999999996 464.70099999999996 C 422.441 464.53599999999994 422.393 464.37399999999997 422.35299999999995 464.20899999999995 C 417.91299999999995 469.27399999999994 414.06399999999996 474.71799999999996 411.82399999999996 481.03 C 411.15999999999997 482.90299999999996 408.16099999999994 482.09099999999995 408.83099999999996 480.205 C 411.45599999999996 472.80899999999997 416.10499999999996 466.59 421.36199999999997 460.78999999999996 C 420.11899999999997 457.10099999999994 418.39099999999996 453.59099999999995 416.26599999999996 450.33 C 411.67499999999995 459.674 407.68199999999996 469.186 403.91799999999995 478.89599999999996 C 401.41599999999994 485.34899999999993 399.01399999999995 491.83899999999994 396.67599999999993 498.352 L 404.9239999999999 498.352 C 410.616 490.405 417.152 482.935 423.64 475.655 z M 452.995 496.38 C 449.51 489.728 446.039 483.07 442.343 476.53499999999997 C 442.023 478.32899999999995 441.90000000000003 480.143 441.946 481.95099999999996 C 443.386 484.84799999999996 445.14700000000005 487.614 446.52900000000005 490.525 C 447.75700000000006 493.11199999999997 448.92600000000004 495.726 450.06800000000004 498.352 L 454.03600000000006 498.352 C 453.689 497.695 453.34 497.039 452.995 496.38 z M 454.068 458.039 C 453.027 458.82599999999996 452.03499999999997 459.676 451.09799999999996 460.582 C 451.80199999999996 462.72499999999997 452.50999999999993 464.867 453.27899999999994 466.989 C 453.73299999999995 468.24199999999996 451.73699999999997 468.777 451.28799999999995 467.53799999999995 C 450.655 465.79299999999995 450.066 464.03299999999996 449.484 462.27099999999996 C 449.13 462.66599999999994 448.78 463.06299999999993 448.44599999999997 463.47399999999993 C 452.75399999999996 474.9309999999999 456.33399999999995 486.63899999999995 459.904 498.3519999999999 L 460.538 498.3519999999999 C 457.487 485.094 455.474 471.605 454.068 458.039 z M 446.99 465.42 C 446.18 466.595 445.456 467.826 444.821 469.10200000000003 C 446.26700000000005 471.83200000000005 447.70700000000005 474.56500000000005 449.03200000000004 477.355 C 449.6 478.55 447.819 479.59700000000004 447.249 478.397 C 446.142 476.067 444.959 473.776 443.76000000000005 471.493 C 443.4920000000001 472.18399999999997 443.25000000000006 472.88599999999997 443.03800000000007 473.599 C 447.3760000000001 481.147 451.3830000000001 488.876 455.43000000000006 496.586 C 455.74000000000007 497.177 456.05800000000005 497.764 456.37200000000007 498.354 L 457.76400000000007 498.354 C 454.403 487.295 451.014 476.247 446.99 465.42 z M 472.787 451.699 C 472.64599999999996 451.697 472.506 451.688 472.36499999999995 451.688 C 469.91099999999994 451.683 467.4789999999999 452.015 465.11999999999995 452.634 C 464.5249999999999 460.779 464.19999999999993 468.928 464.96299999999997 477.1 C 465.087 478.425 463.02099999999996 478.41200000000003 462.89799999999997 477.1 C 462.155 469.142 462.44399999999996 461.204 463.00899999999996 453.27200000000005 C 460.549 454.11400000000003 458.18999999999994 455.26900000000006 456.001 456.689 C 457.421 470.71200000000005 459.46999999999997 484.656 462.645 498.353 L 467.162 498.353 C 466.558 482.763 469.78 467.213 472.787 451.699 z M 487.969 486.301 C 490.247 480.37899999999996 492.514 474.41499999999996 495.301 468.71 C 495.967 467.347 496.65299999999996 465.983 497.327 464.611 C 497.01 464.194 496.683 463.784 496.346 463.383 C 495.415 465.126 494.501 466.878 493.616 468.64799999999997 C 490.573 474.72999999999996 487.81 480.936 485.04699999999997 487.14799999999997 C 483.45899999999995 490.717 481.614 494.47999999999996 479.92299999999994 498.35299999999995 L 483.506 498.35299999999995 C 484.95 494.32 486.431 490.3 487.969 486.301 z M 482.27 467.561 C 483.75899999999996 463.554 485.349 459.58799999999997 487.03 455.66299999999995 C 485.376 454.73599999999993 483.64099999999996 453.96199999999993 481.85499999999996 453.34299999999996 C 479.77399999999994 459.51199999999994 477.943 465.753 476.83099999999996 472.19699999999995 C 476.60499999999996 473.506 474.616 472.9479999999999 474.84 471.64799999999997 C 475.95599999999996 465.18199999999996 477.79499999999996 458.919 479.885 452.72999999999996 C 478.224 452.277 476.527 451.95899999999995 474.807 451.804 C 471.786 467.28 468.553 482.81399999999996 469.2 498.352 L 472.78999999999996 498.352 C 474.919 487.816 478.581 477.486 482.27 467.561 z M 482.899 486.92 C 485.987 480.02500000000003 489.034 473.12100000000004 492.45 466.37800000000004 C 493.238 464.82300000000004 494.058 463.28700000000003 494.888 461.75600000000003 C 494.429 461.27700000000004 493.95599999999996 460.81100000000004 493.469 460.36 C 491.976 462.769 490.481 465.176 488.893 467.52500000000003 C 488.152 468.62100000000004 486.364 467.58700000000005 487.10999999999996 466.48300000000006 C 488.77 464.02700000000004 490.33 461.50900000000007 491.88999999999993 458.99000000000007 C 490.9029999999999 458.18300000000005 489.87299999999993 457.4290000000001 488.80299999999994 456.7390000000001 C 487.19999999999993 460.4910000000001 485.68299999999994 464.28100000000006 484.25999999999993 468.11000000000007 C 480.63899999999995 477.8520000000001 477.02099999999996 488.00300000000004 474.89599999999996 498.35300000000007 L 477.70199999999994 498.35300000000007 C 479.397 494.404 481.266 490.566 482.899 486.92 z M 503.586 483.376 C 503.622 480.933 503.37600000000003 478.48699999999997 502.815 476.09099999999995 C 502.789 475.98099999999994 502.757 475.87299999999993 502.73 475.76399999999995 C 499.77700000000004 479.133 497.21700000000004 482.75299999999993 495.72700000000003 486.95099999999996 C 495.285 488.19599999999997 493.29100000000005 487.657 493.73600000000005 486.402 C 495.482 481.483 498.57400000000007 477.347 502.071 473.49 C 501.245 471.03700000000003 500.095 468.702 498.68100000000004 466.533 C 495.62800000000004 472.748 492.97200000000004 479.074 490.46900000000005 485.53200000000004 C 488.82000000000005 489.785 487.237 494.06100000000004 485.696 498.35300000000007 L 491.232 498.35300000000007 C 494.997 493.113 499.304 488.18 503.586 483.376 z" stroke-linecap="round" />
</g>
		<g transform="matrix(1 0 0 1 -97.56 91.56)" id="color_x5F_3_1_"  >
<path style="stroke: none; stroke-width: 1; stroke-dasharray: none; stroke-linecap: butt; stroke-dashoffset: 0; stroke-linejoin: miter; stroke-miterlimit: 4; fill: rgb(0,0,0); fill-rule: nonzero; opacity: 1;" vector-effect="non-scaling-stroke"  transform=" translate(-220.01, -391.61)" d="M 200.846 469.827 L 213.661 473.58299999999997 L 214.91 473.94899999999996 C 216.025 470.907 217.468 466.47499999999997 219.105 461.28299999999996 C 212.91199999999998 448.65799999999996 208.959 434.72099999999995 208.253 421.06399999999996 C 202.72899999999998 436.82099999999997 199.52599999999998 455.765 199.345 469.38699999999994 L 200.846 469.827 z M 203.365 317.296 C 213.23600000000002 345.551 224.311 377.594 228.306 406.067 C 228.519 407.584 228.747 409.094 228.98600000000002 410.599 L 232.78900000000002 374.74 L 203.936 311.903 L 203.365 317.296 z M 237.706 405.31 C 241.934 395.965 241.41199999999998 394.886 237.65699999999998 385.341 L 235.52499999999998 380.69800000000004 L 231.111 422.31600000000003 C 231.147 422.495 231.18099999999998 422.675 231.21699999999998 422.85400000000004 C 233.615 415.652 235.869 409.372 237.706 405.31 z M 200.783 309.895 L 200.85 309.268 C 200.778 309.32899999999995 200.702 309.38899999999995 200.628 309.45 C 200.679 309.598 200.731 309.747 200.783 309.895 z" stroke-linecap="round" />
</g>
		<g transform="matrix(1 0 0 1 -26.27 -93.39)" id="color_x5F_2"  >
<path style="stroke: none; stroke-width: 1; stroke-dasharray: none; stroke-linecap: butt; stroke-dashoffset: 0; stroke-linejoin: miter; stroke-miterlimit: 4; fill: rgb(251,192,45); fill-rule: nonzero; opacity: 1;" vector-effect="non-scaling-stroke"  transform=" translate(-291.3, -206.66)" d="M 363.017 118.688 L 363.017 132.02700000000002 L 365.07 132.02700000000002 L 365.07 123.4 C 365.07 120.721 366.954 118.373 369.669 117.68700000000001 L 433.64099999999996 101.49900000000001 C 436.74899999999997 102.57300000000001 439.061 105.41900000000001 439.061 108.906 L 439.061 261.13800000000003 C 439.061 264.737 436.657 267.67100000000005 433.445 268.75600000000003 L 369.623 252.13700000000003 C 366.942 251.42800000000003 365.07 249.09200000000004 365.07 246.43500000000003 L 365.07 235.16900000000004 L 363.017 235.16900000000004 L 363.017 251.11400000000003 C 363.017 253.97400000000005 366.099 256.48900000000003 368.915 257.25100000000003 L 435.946 275.139 C 439.32000000000005 273.971 441.84400000000005 270.813 441.84400000000005 266.94 L 441.84400000000005 103.088 C 441.84400000000005 99.33399999999999 439.41700000000003 96.27099999999999 436.15200000000004 95.115 L 368.9630000000001 112.538 C 367.8690000000001 112.821 366.7410000000001 113.36999999999999 365.76400000000007 114.098 C 365.5760000000001 114.238 365.3960000000001 114.386 365.22100000000006 114.538 C 363.932 115.666 363.017 117.123 363.017 118.688 z M 200.627 309.45 C 200.70100000000002 309.389 200.77700000000002 309.329 200.84900000000002 309.268 L 201.727 300.98999999999995 C 201.427 299.31899999999996 201.138 297.64599999999996 200.855 295.97399999999993 L 194.48 295.97399999999993 L 194.48 291.1889999999999 L 200.077 291.1889999999999 C 199.352 286.6089999999999 198.692 282.0249999999999 198.117 277.4359999999999 C 189.825 276.1789999999999 181.61399999999998 274.39399999999995 173.56199999999998 272.06499999999994 C 175.41299999999998 269.4839999999999 177.32 266.8399999999999 179.051 264.11199999999997 C 181.278 260.60499999999996 183.21599999999998 256.962 184.378 253.14099999999996 C 188.14 254.78799999999995 192.13899999999998 256.48099999999994 196.19799999999998 258.18499999999995 C 195.93999999999997 254.68299999999994 195.736 251.17699999999994 195.58599999999998 247.66699999999994 L 202.696 256.60299999999995 C 204.177 258.46399999999994 206.125 259.92299999999994 208.332 260.905 C 208.368 260.916 208.403 260.921 208.439 260.933 C 208.843 261.058 209.218 261.14 209.57899999999998 261.203 C 206.19099999999997 255.24499999999998 206.87999999999997 249.71399999999997 209.397 245.59299999999996 C 211.56699999999998 242.03799999999995 216.47899999999998 240.35299999999995 219.807 242.85599999999997 C 220.03 243.02299999999997 220.243 243.18599999999998 220.464 243.35199999999998 C 220.47 243.31199999999998 220.47899999999998 243.27599999999998 220.48499999999999 243.23599999999996 C 220.37599999999998 243.22599999999997 218.998 241.53099999999995 218.88899999999998 241.51999999999995 C 217.28599999999997 239.02199999999996 215.62199999999999 236.48599999999996 213.93399999999997 233.93499999999995 C 213.79499999999996 233.72399999999993 213.65799999999996 233.51599999999993 213.51899999999998 233.30499999999995 C 207.658 224.46199999999996 201.45999999999998 215.40699999999995 195.909 206.75699999999995 C 193.958 203.71799999999996 191.13 201.65499999999994 188.022 199.69899999999996 C 186.271 198.45799999999994 184.433 197.30999999999995 182.542 196.29499999999996 L 181.809 204.99699999999996 L 179.651 204.81499999999997 C 175.508 200.38499999999996 170.893 196.45899999999997 165.491 193.90299999999996 L 165.644 192.08399999999997 C 159.604 192.62099999999998 153.955 195.84399999999997 149.698 203.22799999999998 C 133.875 230.67399999999998 142.032 278.589 151.34 314.851 C 151.883 315.113 152.452 315.353 153.03300000000002 315.582 C 166.774 321.007 190.759 317.57 200.627 309.45 z" stroke-linecap="round" />
</g>
		<g transform="matrix(1 0 0 1 5.37 -13.7)" id="color_x5F_1"  >
<path style="stroke: none; stroke-width: 1; stroke-dasharray: none; stroke-linecap: butt; stroke-dashoffset: 0; stroke-linejoin: miter; stroke-miterlimit: 4; fill: rgb(0,0,0); fill-rule: nonzero; opacity: 1;" vector-effect="non-scaling-stroke"  transform=" translate(-322.94, -286.35)" d="M 321.1 108.755 C 336.353 108.755 351.13800000000003 110.78 365.221 114.53999999999999 C 365.396 114.38699999999999 365.576 114.23899999999999 365.764 114.1 C 351.37600000000003 110.252 336.392 108.256 321.1 108.256 C 275.22400000000005 108.256 232.09400000000002 126.121 199.65500000000003 158.56 C 198.60200000000003 159.613 197.58900000000003 160.695 196.56700000000004 161.77 L 196.56700000000004 162.61200000000002 C 227.813 129.481 272.074 108.755 321.1 108.755 z M 174.666 369.844 C 179.71699999999998 378.04699999999997 185.48499999999999 385.867 191.945 393.219 L 192.03199999999998 392.394 C 185.59499999999997 385.01 179.777 377.076 174.665 368.664 L 174.666 369.844 L 174.666 369.844 z M 167.555 355.77 C 167.386 355.876 167.208 355.972 167.025 356.063 C 167.65800000000002 357.341 168.312 358.609 168.977 359.872 L 168.977 358.531 C 168.5 357.612 168.015 356.698 167.555 355.77 z M 350.517 449.257 C 350.688 449.228 350.859 449.197 351.03 449.16700000000003 L 350.974 448.64000000000004 C 350.8 448.67100000000005 350.625 448.69700000000006 350.452 448.72700000000003 C 350.474 448.903 350.496 449.08 350.517 449.257 z M 342.465 450.445 C 342.404 450.278 342.342 450.111 342.28099999999995 449.944 C 341.23799999999994 450.07300000000004 340.1929999999999 450.19300000000004 339.14399999999995 450.30400000000003 C 339.20399999999995 450.46700000000004 339.263 450.63100000000003 339.32199999999995 450.795 C 340.371 450.684 341.42 450.573 342.465 450.445 z M 388.53 438.05 C 388.606 437.803 388.67999999999995 437.555 388.756 437.308 C 387.52599999999995 437.839 386.28799999999995 438.356 385.04299999999995 438.859 C 384.97099999999995 439.099 384.89699999999993 439.339 384.82499999999993 439.579 C 386.067 439.084 387.301 438.574 388.53 438.05 z M 347.551 449.732 C 347.493 449.567 347.436 449.40200000000004 347.378 449.237 C 346.339 449.398 345.294 449.54 344.24899999999997 449.682 C 344.30699999999996 449.848 344.36499999999995 450.014 344.42299999999994 450.17900000000003 C 345.468 450.039 346.511 449.892 347.551 449.732 z M 442.545 401.448 C 474.983 369.01 492.84900000000005 325.87899999999996 492.84900000000005 280.003 C 492.84900000000005 257.794 488.65000000000003 236.23299999999998 480.64900000000006 216.212 C 480.47700000000003 216.29899999999998 480.29900000000004 216.379 480.11500000000007 216.452 C 488.00000000000006 236.112 492.34800000000007 257.558 492.34800000000007 280.003 C 492.34800000000007 347.025 453.6400000000001 405.168 397.41100000000006 433.277 C 397.63400000000007 433.393 397.8550000000001 433.51099999999997 398.0760000000001 433.63 C 414.318 425.474 429.32 414.673 442.545 401.448 z M 377.639 442.262 C 377.68 442.043 377.721 441.825 377.762 441.606 C 376.68 441.98699999999997 375.593 442.35699999999997 374.501 442.717 C 374.46099999999996 442.93199999999996 374.421 443.147 374.38 443.36199999999997 C 375.471 443.007 376.556 442.638 377.639 442.262 z M 337.04 451.018 C 337.151 450.83399999999995 337.274 450.657 337.387 450.474 C 332.024 450.98199999999997 326.594 451.253 321.1 451.253 C 319.30100000000004 451.253 317.51000000000005 451.217 315.725 451.161 L 315.77700000000004 451.65500000000003 C 317.547 451.71200000000005 319.32000000000005 451.75300000000004 321.1 451.75300000000004 C 326.456 451.753 331.772 451.499 337.04 451.018 z M 364.962 446.119 C 364.966 445.92800000000005 364.971 445.737 364.976 445.54600000000005 C 363.939 445.821 362.897 446.08400000000006 361.853 446.34000000000003 C 361.849 446.53000000000003 361.844 446.71900000000005 361.84000000000003 446.90900000000005 C 362.884 446.656 363.925 446.392 364.962 446.119 z M 441.845 103.088 L 441.845 266.94 C 441.845 270.813 439.321 273.971 435.947 275.139 L 436.724 275.342 C 437.145 275.452 437.56399999999996 275.52 437.981 275.56899999999996 C 438.231 275.59799999999996 438.48 275.621 438.728 275.62899999999996 C 443.615 275.792 447.914 271.94899999999996 447.914 266.89099999999996 L 447.914 165.05099999999996 C 458.385 176.59399999999997 467.307 189.56599999999997 474.348 203.63699999999994 C 474.528 203.54899999999995 474.71700000000004 203.47099999999995 474.911 203.39899999999994 C 467.86 189.27599999999995 458.812 176.08499999999995 447.914 164.17699999999994 L 447.914 103.06099999999994 C 447.914 97.49499999999993 442.541 93.44199999999994 437.06399999999996 94.87599999999993 L 436.15399999999994 95.11399999999993 C 439.417 96.272 441.845 99.334 441.845 103.088 z M 230.706 477.554 L 243.20499999999998 472.852 L 244.42299999999997 472.39399999999995 C 239.81199999999998 457.14799999999997 235.41699999999997 442.21799999999996 232.08399999999997 426.94899999999996 C 253.03599999999997 439.68999999999994 276.46799999999996 447.756 301.08 450.59599999999995 C 301.089 450.42599999999993 301.104 450.25699999999995 301.12399999999997 450.08899999999994 C 275.99699999999996 447.15599999999995 252.52299999999997 438.74799999999993 231.90599999999995 426.1139999999999 C 231.67199999999994 425.02899999999994 231.43899999999994 423.9439999999999 231.21699999999996 422.85599999999994 C 231.17999999999995 422.67699999999996 231.14699999999996 422.49699999999996 231.11099999999996 422.3179999999999 L 225.73699999999997 472.9849999999999 C 226.86799999999997 474.7309999999999 228.02799999999996 476.4489999999999 229.24099999999996 478.1069999999999 L 230.706 477.554 z M 193.016 383.118 L 200.78199999999998 309.895 C 200.73 309.74699999999996 200.67799999999997 309.597 200.62699999999998 309.45 C 190.759 317.57099999999997 166.77399999999997 321.007 153.033 315.58299999999997 C 153.19899999999998 316.37399999999997 153.374 317.16299999999995 153.551 317.95099999999996 C 154.111 321.36799999999994 154.98299999999998 324.69699999999995 156.10799999999998 327.95 C 156.46599999999998 329.186 156.83799999999997 330.417 157.22299999999998 331.643 L 157.503 331.643 C 159.90699999999998 337.50899999999996 163.08599999999998 343.13199999999995 166.689 348.58099999999996 C 167.434 349.70799999999997 168.197 350.82699999999994 168.975 351.93899999999996 C 170.804 354.55499999999995 172.713 357.13399999999996 174.664 359.68199999999996 C 180.812 367.708 187.357 375.438 193.016 383.118 z M 203.365 317.296 L 195.949 387.216 C 200.45100000000002 393.72700000000003 204.145 400.235 206.245 406.88800000000003 C 202.34300000000002 403.35200000000003 198.60500000000002 399.641 195.042 395.764 L 194.957 396.562 C 196.488 398.216 198.052 399.846 199.654 401.44800000000004 C 201.90699999999998 403.70200000000006 204.218 405.877 206.572 407.98900000000003 C 207.522 411.28700000000003 208.079 414.622 208.133 418.014 C 208.149 419.028 208.20000000000002 420.046 208.252 421.064 C 208.958 434.721 212.911 448.658 219.104 461.283 C 220.28 463.68 221.53400000000002 466.03000000000003 222.864 468.322 L 228.986 410.599 C 228.74699999999999 409.093 228.51899999999998 407.58299999999997 228.30599999999998 406.067 C 224.311 377.594 213.236 345.551 203.365 317.296 z" stroke-linecap="round" />
</g>
</g>
</g>
</svg>